<svg width="256" height="256" viewBox="0 0 256 256" fill="none" xmlns="http://www.w3.org/2000/svg">
<path d="M16.6668 155.552C14.4495 146.536 13.3303 137.285 13.3335 128C13.3335 64.672 64.6722 13.3333 128 13.3333C191.328 13.3333 242.667 64.672 242.667 128C242.667 191.328 191.328 242.667 128 242.667C90.0482 242.667 56.4002 224.229 35.5308 195.819" stroke="black" stroke-linecap="round" stroke-linejoin="round"/>
<path d="M34.6985 61.3333C19.6905 83.7866 38.0799 96.9493 39.8719 107.712C41.6639 118.475 0.853201 165.136 13.3332 188.16C25.8132 211.184 64.3999 178.293 75.1679 190.853C85.9359 203.413 88.7679 220.763 105.52 220.613C122.272 220.464 133.707 216.299 145.893 227.493C158.08 238.688 167.419 237.125 178.213 231.12" stroke="black" stroke-linecap="round" stroke-linejoin="round"/>
<path d="M194.171 130.048C195.333 128.989 196.262 127.7 196.898 126.261C197.534 124.823 197.863 123.268 197.864 121.696C197.865 120.123 197.538 118.568 196.904 117.129C196.27 115.69 195.343 114.399 194.181 113.339C184.817 104.776 174.547 97.2618 163.552 90.928C152.542 84.5915 140.884 79.4546 128.779 75.6053C127.283 75.1368 125.707 74.9842 124.15 75.1573C122.592 75.3303 121.088 75.8252 119.732 76.6105C118.376 77.3959 117.198 78.4545 116.273 79.7192C115.347 80.9839 114.695 82.4272 114.357 83.9573C111.625 96.3506 110.253 109.005 110.267 121.696C110.283 134.403 111.664 147.071 114.384 159.483C114.723 161.008 115.374 162.446 116.298 163.706C117.221 164.966 118.396 166.021 119.748 166.803C121.1 167.585 122.6 168.078 124.153 168.25C125.706 168.422 127.277 168.27 128.768 167.803C140.887 163.971 152.551 158.826 163.552 152.459C174.527 146.103 184.79 138.59 194.165 130.048H194.171Z" stroke="black" stroke-linecap="round" stroke-linejoin="round"/>
<path d="M179.723 140.784C182.512 138.24 182.517 133.851 179.723 131.301C174.412 126.442 168.585 122.178 162.347 118.587C156.098 114.996 149.485 112.081 142.619 109.893C141.77 109.625 140.876 109.537 139.992 109.634C139.107 109.731 138.253 110.011 137.483 110.457C136.713 110.902 136.045 111.504 135.521 112.222C134.996 112.94 134.627 113.76 134.437 114.629C132.883 121.661 132.103 128.841 132.112 136.043C132.123 144.288 133.147 151.557 134.448 157.483C134.639 158.348 135.009 159.165 135.532 159.88C136.056 160.595 136.722 161.194 137.49 161.638C138.257 162.083 139.108 162.363 139.989 162.461C140.87 162.559 141.762 162.473 142.608 162.208C149.486 160.035 156.105 157.115 162.347 153.499C168.574 149.89 174.399 145.627 179.723 140.784Z" stroke="black" stroke-linecap="round" stroke-linejoin="round"/>
</svg>
