<svg width="256" height="256" viewBox="0 0 256 256" fill="none" xmlns="http://www.w3.org/2000/svg">
<path d="M181.333 192C186.991 192 192.417 194.248 196.418 198.248C200.419 202.249 202.666 207.675 202.666 213.333C202.666 218.991 200.419 224.417 196.418 228.418C192.417 232.419 186.991 234.667 181.333 234.667C175.675 234.667 170.249 232.419 166.248 228.418C162.247 224.417 160 218.991 160 213.333C160 201.493 169.493 192 181.333 192ZM10.6665 21.3333H45.5465L55.5732 42.6666H213.333C216.162 42.6666 218.875 43.7905 220.876 45.7908C222.876 47.7912 224 50.5043 224 53.3333C224 55.1466 223.466 56.96 222.72 58.6666L184.533 127.68C180.906 134.187 173.866 138.667 165.866 138.667H86.3998L76.7998 156.053L76.4798 157.333C76.4798 158.041 76.7608 158.719 77.2609 159.219C77.761 159.719 78.4393 160 79.1465 160H202.666V181.333H74.6665C69.0085 181.333 63.5823 179.086 59.5816 175.085C55.5808 171.084 53.3332 165.658 53.3332 160C53.3332 156.267 54.2932 152.747 55.8932 149.76L70.3998 123.627L31.9998 42.6666H10.6665V21.3333ZM74.6665 192C80.3245 192 85.7507 194.248 89.7514 198.248C93.7522 202.249 95.9998 207.675 95.9998 213.333C95.9998 218.991 93.7522 224.417 89.7514 228.418C85.7507 232.419 80.3245 234.667 74.6665 234.667C69.0085 234.667 63.5823 232.419 59.5816 228.418C55.5808 224.417 53.3332 218.991 53.3332 213.333C53.3332 201.493 62.8265 192 74.6665 192ZM170.666 117.333L200.32 64H65.4932L90.6665 117.333H170.666Z" fill="black"/>
</svg>
