<svg width="256" height="256" viewBox="0 0 256 256" fill="none" xmlns="http://www.w3.org/2000/svg">
<g clip-path="url(#clip0_28_2143)">
<path d="M208.285 35.5556H157.653C155.547 29.4383 151.616 24.1138 146.39 20.2994C141.164 16.485 134.895 14.364 128.427 14.2222C122.023 14.4452 115.836 16.6029 110.682 20.4111C105.529 24.2192 101.649 29.4992 99.5557 35.5556H49.7779C48.0364 35.3037 46.2613 35.424 44.5697 35.9085C42.8781 36.3931 41.3086 37.2308 39.9645 38.3665C38.6205 39.5022 37.5326 40.91 36.7726 42.4971C36.0127 44.0841 35.5979 45.8142 35.5557 47.5733V229.76C35.565 231.348 35.8869 232.918 36.503 234.381C37.1192 235.844 38.0175 237.171 39.1466 238.287C40.2758 239.403 41.6137 240.286 43.084 240.885C44.5543 241.484 46.1281 241.787 47.7157 241.778H208.285C209.872 241.787 211.446 241.484 212.916 240.885C214.386 240.286 215.724 239.403 216.854 238.287C217.983 237.171 218.881 235.844 219.497 234.381C220.113 232.918 220.435 231.348 220.445 229.76V47.5733C220.435 45.9858 220.113 44.4156 219.497 42.9525C218.881 41.4894 217.983 40.1619 216.854 39.046C215.724 37.93 214.386 37.0474 212.916 36.4485C211.446 35.8496 209.872 35.5462 208.285 35.5556ZM80.2846 56.8889C80.2846 55.0029 81.0338 53.1942 82.3674 51.8606C83.7009 50.527 85.5097 49.7778 87.3957 49.7778H111.858V44.8711C111.858 42.7093 112.284 40.5686 113.111 38.5713C113.938 36.574 115.151 34.7592 116.68 33.2306C118.208 31.7019 120.023 30.4893 122.02 29.662C124.018 28.8347 126.158 28.4089 128.32 28.4089C130.482 28.4089 132.623 28.8347 134.62 29.662C136.617 30.4893 138.432 31.7019 139.961 33.2306C141.489 34.7592 142.702 36.574 143.529 38.5713C144.357 40.5686 144.782 42.7093 144.782 44.8711V49.7778H169.245C171.131 49.7778 172.939 50.527 174.273 51.8606C175.606 53.1942 176.356 55.0029 176.356 56.8889V71.1111H80.4268L80.2846 56.8889ZM177.778 199.111H78.2223V184.889H177.778V199.111ZM177.778 170.667H78.2223V156.444H177.778V170.667ZM177.778 142.222H78.2223V128H177.778V142.222ZM177.778 113.778H78.2223V99.5556H177.778V113.778Z" fill="black"/>
</g>
<defs>
<clipPath id="clip0_28_2143">
<rect width="256" height="256" fill="white"/>
</clipPath>
</defs>
</svg>
