<svg width="256" height="256" viewBox="0 0 256 256" fill="none" xmlns="http://www.w3.org/2000/svg">
<g clip-path="url(#clip0_13_878)">
<path fill-rule="evenodd" clip-rule="evenodd" d="M147.36 38.176C148.921 35.8679 149.517 33.0407 149.02 30.299C148.523 27.5574 146.973 25.119 144.702 23.5053C142.43 21.8916 139.618 21.2307 136.865 21.6641C134.113 22.0974 131.639 23.5905 129.973 25.824L119.307 40.8533C118.9 41.4221 118.55 42.0294 118.261 42.6667H80.0002C75.7567 42.6667 71.687 44.3524 68.6865 47.353C65.6859 50.3535 64.0002 54.4232 64.0002 58.6667V74.6667L64.0322 75.5627C60.9036 76.6613 58.1937 78.7048 56.2771 81.4106C54.3605 84.1164 53.3319 87.3508 53.3335 90.6667V106.667C53.3335 109.486 54.4499 112.191 56.4388 114.19C58.4277 116.189 61.1271 117.319 63.9468 117.333L73.7602 215.467C74.289 220.729 76.7536 225.607 80.6758 229.155C84.598 232.702 89.6982 234.667 94.9868 234.667H161.013C166.302 234.667 171.402 232.702 175.324 229.155C179.247 225.607 181.711 220.729 182.24 215.467L192.053 117.333C194.873 117.319 197.573 116.189 199.562 114.19C201.55 112.191 202.667 109.486 202.667 106.667V90.6667C202.668 87.3508 201.64 84.1164 199.723 81.4106C197.807 78.7048 195.097 76.6613 191.968 75.5627L192 74.6667V58.6667C192 54.4232 190.314 50.3535 187.314 47.353C184.313 44.3524 180.244 42.6667 176 42.6667H144.181L147.36 38.176ZM85.3335 74.6667V64H170.667V74.6667H85.3335Z" fill="black"/>
</g>
<defs>
<clipPath id="clip0_13_878">
<rect width="256" height="256" fill="white"/>
</clipPath>
</defs>
</svg>
