<svg width="256" height="256" viewBox="0 0 256 256" fill="none" xmlns="http://www.w3.org/2000/svg">
<path d="M192.64 245.333H210.347C219.307 245.333 226.667 238.4 227.733 229.653L245.333 53.8667H192V10.6667H170.987V53.8667H117.973L121.173 78.8267C139.413 83.84 156.48 92.9067 166.72 102.933C182.08 118.08 192.64 133.76 192.64 159.36V245.333ZM10.6665 234.667V224H170.987V234.667C170.987 240.427 166.187 245.333 160 245.333H21.3332C15.4665 245.333 10.6665 240.427 10.6665 234.667ZM170.987 160C170.987 74.6667 10.6665 74.6667 10.6665 160H170.987ZM10.6665 181.333H170.667V202.667H10.6665V181.333Z" fill="black"/>
</svg>
