<svg width="256" height="256" viewBox="0 0 256 256" fill="none" xmlns="http://www.w3.org/2000/svg">
<g clip-path="url(#clip0_9_399)">
<path fill-rule="evenodd" clip-rule="evenodd" d="M84.6934 139.307C81.6971 136.307 80.0142 132.24 80.0142 128C80.0142 123.76 81.6971 119.693 84.6934 116.693L145.024 56.3413C148.026 53.3412 152.096 51.6563 156.34 51.6573C158.441 51.6578 160.522 52.0722 162.463 52.8768C164.404 53.6814 166.168 54.8604 167.653 56.3466C169.139 57.8329 170.317 59.5971 171.121 61.5387C171.925 63.4802 172.338 65.5611 172.337 67.6624C172.337 69.7637 171.923 71.8444 171.118 73.7856C170.313 75.7268 169.134 77.4905 167.648 78.976L118.635 128L167.659 177.024C169.188 178.499 170.407 180.264 171.247 182.216C172.086 184.167 172.529 186.267 172.548 188.391C172.567 190.516 172.164 192.623 171.36 194.589C170.557 196.556 169.369 198.343 167.868 199.846C166.366 201.349 164.58 202.538 162.614 203.343C160.648 204.149 158.542 204.555 156.417 204.537C154.293 204.52 152.193 204.079 150.241 203.242C148.288 202.404 146.522 201.186 145.045 199.659L84.6721 139.307H84.6934Z" fill="black"/>
</g>
<defs>
<clipPath id="clip0_9_399">
<rect width="256" height="256" fill="white"/>
</clipPath>
</defs>
</svg>
