<svg width="256" height="256" viewBox="0 0 256 256" fill="none" xmlns="http://www.w3.org/2000/svg">
<g clip-path="url(#clip0_13_1112)">
<path d="M238.152 186.88C237.651 185.106 236.482 183.596 234.89 182.667C233.299 181.739 231.408 181.464 229.618 181.902L211.912 186.667C221.601 172.384 227.476 155.86 228.978 138.667C230.431 122.581 228.079 106.378 222.112 91.3693C216.145 76.3602 206.732 62.9652 194.632 52.2666C193.233 51.1098 191.445 50.5316 189.633 50.6506C187.822 50.7696 186.125 51.5767 184.889 52.9066C183.646 54.3219 183.016 56.1725 183.136 58.0523C183.256 59.9322 184.116 61.6876 185.529 62.9333C195.956 72.1368 204.068 83.6672 209.207 96.5901C214.347 109.513 216.369 123.465 215.112 137.316C213.891 151.903 208.998 165.945 200.889 178.133L199.112 160.284C199.246 159.234 199.143 158.167 198.812 157.161C198.481 156.155 197.93 155.236 197.198 154.47C196.466 153.705 195.573 153.113 194.583 152.736C193.593 152.36 192.532 152.21 191.476 152.297C190.421 152.383 189.398 152.705 188.483 153.237C187.567 153.769 186.782 154.499 186.185 155.374C185.588 156.249 185.194 157.245 185.031 158.292C184.868 159.338 184.941 160.408 185.245 161.422L188.8 207.218L233.245 195.413C235.005 194.898 236.499 193.723 237.413 192.133C238.328 190.543 238.592 188.661 238.152 186.88Z" fill="black"/>
<path d="M30.649 121.458C31.5983 122.057 32.6654 122.445 33.7779 122.596C35.6338 122.839 37.5108 122.341 39.0018 121.209C40.4928 120.078 41.4775 118.404 41.7424 116.551C44.6807 94.8562 55.7062 75.0721 72.611 61.1605C89.5158 47.249 111.052 40.2371 132.907 41.5289L116.978 52.4089C115.851 53.258 115.002 54.4232 114.539 55.7562C114.076 57.0892 114.02 58.5298 114.379 59.8946C114.737 61.2594 115.493 62.4867 116.552 63.4204C117.61 64.3541 118.921 64.9519 120.32 65.1378C121.922 65.2842 123.527 64.8832 124.871 64L162.774 37.9734L130.347 5.40446C129.77 4.52028 129.003 3.77568 128.102 3.22473C127.202 2.67377 126.19 2.33029 125.14 2.21921C124.09 2.10814 123.028 2.23225 122.032 2.58256C121.036 2.93286 120.131 3.50055 119.382 4.24443C118.632 4.9883 118.058 5.88968 117.701 6.88313C117.343 7.87659 117.211 8.93718 117.315 9.9879C117.418 11.0386 117.754 12.0531 118.299 12.9577C118.843 13.8624 119.582 14.6344 120.462 15.2178L132.551 27.3067C107.313 26.0999 82.5388 34.3991 63.1204 50.5658C43.7019 66.7325 31.05 89.5919 27.6624 114.631C27.4801 115.934 27.6627 117.262 28.19 118.467C28.7172 119.672 29.5685 120.708 30.649 121.458Z" fill="black"/>
<path d="M154.524 212.836C143.42 216.383 131.707 217.617 120.107 216.462C105.979 215.077 92.4015 210.275 80.5451 202.47C68.6887 194.665 58.91 184.091 52.0534 171.662L69.76 178.276C71.3922 178.559 73.072 178.263 74.5095 177.44C75.947 176.616 77.052 175.317 77.6336 173.766C78.2153 172.215 78.2372 170.509 77.6955 168.944C77.1538 167.378 76.0826 166.051 74.6667 165.191L42.0267 153.102L31.5734 149.333L23.68 194.489C23.4064 196.293 23.837 198.134 24.8827 199.63C25.9284 201.125 27.5091 202.162 29.2978 202.524H30.5067C32.1804 202.555 33.8111 201.994 35.1119 200.94C36.4127 199.887 37.3 198.408 37.6178 196.764L40.6045 179.698C48.6473 193.787 59.9443 205.747 73.5522 214.58C87.16 223.413 102.684 228.861 118.827 230.471C132.323 231.811 145.951 230.358 158.862 226.204C160.506 225.524 161.835 224.251 162.587 222.639C163.339 221.026 163.459 219.19 162.923 217.493C162.387 215.796 161.234 214.362 159.693 213.473C158.151 212.585 156.332 212.306 154.596 212.693L154.524 212.836Z" fill="black"/>
<path d="M156.444 92.4445H99.5554C97.6695 92.4445 95.8607 93.1937 94.5271 94.5273C93.1935 95.8608 92.4443 97.6696 92.4443 99.5556V156.444C92.4443 158.33 93.1935 160.139 94.5271 161.473C95.8607 162.806 97.6695 163.556 99.5554 163.556H156.444C158.33 163.556 160.139 162.806 161.473 161.473C162.806 160.139 163.555 158.33 163.555 156.444V99.5556C163.555 97.6696 162.806 95.8608 161.473 94.5273C160.139 93.1937 158.33 92.4445 156.444 92.4445ZM149.333 149.333H106.667V106.667H149.333V149.333Z" fill="black"/>
</g>
<defs>
<clipPath id="clip0_13_1112">
<rect width="256" height="256" fill="white"/>
</clipPath>
</defs>
</svg>
