<svg width="256" height="256" viewBox="0 0 256 256" fill="none" xmlns="http://www.w3.org/2000/svg">
<g clip-path="url(#clip0_9_408)">
<path fill-rule="evenodd" clip-rule="evenodd" d="M171.307 116.693C174.303 119.693 175.986 123.76 175.986 128C175.986 132.24 174.303 136.307 171.307 139.307L110.976 199.659C107.974 202.659 103.904 204.344 99.6602 204.343C95.4164 204.342 91.3468 202.655 88.3466 199.653C85.3465 196.652 83.6616 192.581 83.6626 188.338C83.6636 184.094 85.3504 180.024 88.352 177.024L137.376 128L88.352 78.976C85.436 75.9597 83.8213 71.9189 83.8558 67.7237C83.8903 63.5285 85.5711 59.5147 88.5362 56.5467C91.5014 53.5788 95.5136 51.8942 99.7087 51.8558C103.904 51.8174 107.946 53.4282 110.965 56.3413L171.317 116.683L171.307 116.693Z" fill="black"/>
</g>
<defs>
<clipPath id="clip0_9_408">
<rect width="256" height="256" fill="white"/>
</clipPath>
</defs>
</svg>
