<svg width="256" height="256" viewBox="0 0 256 256" fill="none" xmlns="http://www.w3.org/2000/svg">
<path d="M74.6663 234.667C59.9108 234.667 47.3348 229.465 36.9383 219.061C26.5419 208.658 21.3401 196.082 21.333 181.333C21.3259 166.585 26.5277 154.009 36.9383 143.605C47.349 133.202 59.925 128 74.6663 128C89.4077 128 101.987 133.202 112.405 143.605C122.823 154.009 128.021 166.585 128 181.333C127.978 196.082 122.777 208.661 112.394 219.072C102.012 229.483 89.4361 234.681 74.6663 234.667ZM219.733 224L151.466 155.733C149.333 153.422 147.068 151.068 144.672 148.672C142.275 146.276 139.918 144.007 137.6 141.867C144.355 137.6 149.777 131.911 153.866 124.8C157.955 117.689 160 109.867 160 101.333C160 88 155.335 76.6684 146.005 67.3387C136.675 58.0089 125.34 53.3404 112 53.3333C98.6592 53.3262 87.3277 57.9947 78.005 67.3387C68.6823 76.6827 64.0139 88.0142 63.9997 101.333C63.9997 102.4 64.0459 103.424 64.1383 104.405C64.2308 105.387 64.3623 106.407 64.533 107.467C61.333 107.822 57.8237 108.533 54.005 109.6C50.1863 110.667 46.7623 111.911 43.733 113.333C43.3775 111.378 43.1108 109.422 42.933 107.467C42.7552 105.511 42.6663 103.467 42.6663 101.333C42.6663 81.9556 49.3792 65.5573 62.805 52.1387C76.2308 38.72 92.629 32.0071 112 32C131.37 31.9929 147.772 38.7058 161.205 52.1387C174.638 65.5716 181.347 81.9698 181.333 101.333C181.333 108.978 180.135 116.224 177.738 123.072C175.342 129.92 172.007 136.185 167.733 141.867L234.666 209.067L219.733 224ZM55.733 207.733L74.6663 188.8L93.333 207.733L101.066 200.267L82.133 181.333L101.066 162.4L93.5997 154.933L74.6663 173.867L55.733 154.933L48.2663 162.4L67.1997 181.333L48.2663 200.267L55.733 207.733Z" fill="black"/>
</svg>
