<svg width="256" height="256" viewBox="0 0 256 256" fill="none" xmlns="http://www.w3.org/2000/svg">
<path d="M209.067 224L141.867 156.8C136.533 161.067 130.4 164.444 123.467 166.933C116.533 169.422 109.156 170.667 101.333 170.667C81.9556 170.667 65.5573 163.954 52.1387 150.528C38.72 137.102 32.0071 120.704 32 101.333C31.9929 81.9627 38.7058 65.5644 52.1387 52.1387C65.5716 38.7129 81.9698 32 101.333 32C120.697 32 137.099 38.7129 150.539 52.1387C163.979 65.5644 170.688 81.9627 170.667 101.333C170.667 109.156 169.422 116.533 166.933 123.467C164.444 130.4 161.067 136.533 156.8 141.867L224 209.067L209.067 224ZM101.333 149.333C114.667 149.333 126.002 144.668 135.339 135.339C144.676 126.009 149.34 114.674 149.333 101.333C149.326 87.9929 144.661 76.6613 135.339 67.3387C126.016 58.016 114.681 53.3476 101.333 53.3333C87.9858 53.3191 76.6542 57.9876 67.3387 67.3387C58.0231 76.6898 53.3547 88.0213 53.3333 101.333C53.312 114.645 57.9805 125.98 67.3387 135.339C76.6969 144.697 88.0285 149.362 101.333 149.333Z" fill="black"/>
</svg>
